<mxfile host="app.diagrams.net" modified="2023-10-31T18:04:26.244Z" agent="Mozilla/5.0 (Macintosh; Intel Mac OS X 10_15_7) AppleWebKit/605.1.15 (KHTML, like Gecko) Version/16.5.2 Safari/605.1.15" version="22.0.6" etag="vp4aJytQ5RJLd5sMiyVb" type="github">
  <diagram name="Page-1" id="FxnS-jEmvQ13C9vh2jyF">
    <mxGraphModel>
      <root>
        <mxCell id="0" />
        <mxCell id="1" parent="0" />
      </root>
    </mxGraphModel>
  </diagram>
</mxfile>
